<?xml version="1.0" encoding="UTF-8"?>
<svg width="25px" height="16px" viewBox="0 0 25 16" version="1.1" xmlns="http://www.w3.org/2000/svg" xmlns:xlink="http://www.w3.org/1999/xlink">
    <!-- Generator: Sketch 50.2 (55047) - http://www.bohemiancoding.com/sketch -->
    <title>04</title>
    <desc>Created with Sketch.</desc>
    <defs></defs>
    <g id="Page-1" stroke="none" stroke-width="1" fill="none" fill-rule="evenodd">
        <g id="all_application_calendar_open" transform="translate(-1358.000000, -672.000000)">
            <g id="04" transform="translate(1357.000000, 666.000000)">
                <rect id="Rectangle-7" x="0" y="0" width="28" height="28"></rect>
                <g id="cargo-truck" opacity="0.800000012" transform="translate(1.000000, 6.000000)" fill="#999999" fill-rule="nonzero">
                    <path d="M20.625,11.7012784 C19.453268,11.7012784 18.5,12.6638351 18.5,13.846433 C18.5,15.0292784 19.453268,15.9915876 20.625,15.9915876 C21.7964869,15.9915876 22.75,15.0292784 22.75,13.846433 C22.75,12.6638351 21.7964869,11.7012784 20.625,11.7012784 Z M20.625,14.4773608 C20.2802696,14.4773608 20,14.194433 20,13.846433 C20,13.498433 20.2802696,13.2155052 20.625,13.2155052 C20.9697304,13.2155052 21.25,13.498433 21.25,13.846433 C21.25,14.194433 20.9697304,14.4773608 20.625,14.4773608 Z" id="Shape"></path>
                    <path d="M20.4214869,2.78424742 L16.75,2.78424742 C16.4737337,2.78424742 16.25,3.01039175 16.25,3.28898969 L16.25,13.1314639 C16.25,13.4100619 16.4737337,13.6362062 16.75,13.6362062 L17.2802696,13.6362062 C17.5277778,13.6362062 17.747018,13.4562474 17.7790033,13.2084536 C17.9752451,11.6906804 19.1745098,10.7493608 20.6252451,10.7493608 C22.0759804,10.7493608 23.2752451,11.6907216 23.4714869,13.2084536 C23.5034722,13.4562887 23.7224673,13.6362062 23.9702206,13.6362062 L24.4999592,13.6362062 C24.7759395,13.6362062 24.9999592,13.4100619 24.9999592,13.1314639 L24.9999592,8.2102268 C24.9999592,8.09162887 24.958701,7.97703093 24.8834559,7.88643299 L20.8049428,2.96519588 C20.7100082,2.85063918 20.5694853,2.78424742 20.4214869,2.78424742 Z M17.25,6.82218557 L17.25,4.29847423 C17.25,4.01987629 17.4737337,3.79373196 17.75,3.79373196 L19.9524918,3.79373196 C20.1007353,3.79373196 20.2415033,3.86037113 20.3364788,3.97542268 L22.4197304,6.49913402 C22.6909722,6.82795876 22.4594771,7.32692784 22.0354984,7.32692784 L17.75,7.32692784 C17.4737337,7.32692784 17.25,7.10107216 17.25,6.82218557 Z" id="Shape"></path>
                    <path d="M0.5,13.6364536 L1.78026961,13.6364536 C2.02777778,13.6364536 2.24701797,13.4564948 2.27900327,13.208701 C2.4752451,11.6909278 3.6745098,10.7496082 5.1252451,10.7496082 C6.57598039,10.7496082 7.7752451,11.6909691 7.97148693,13.208701 C8.00347222,13.4565361 8.22246732,13.6364536 8.47022059,13.6364536 L14.75,13.6364536 C15.0260212,13.6364536 15.25,13.4103093 15.25,13.1317113 L15.25,0.513154639 C15.25,0.234556701 15.0259804,0.00841237113 14.75,0.00841237113 L0.5,0.00841237113 C0.22373366,0.00841237113 0,0.234556701 0,0.513154639 L0,13.1317113 C0,13.4103505 0.22373366,13.6364536 0.5,13.6364536 Z" id="Shape"></path>
                    <path d="M5.125,11.7012784 C3.95326797,11.7012784 3,12.6638351 3,13.846433 C3,15.0292784 3.95326797,15.9915876 5.125,15.9915876 C6.29648693,15.9915876 7.25,15.0292784 7.25,13.846433 C7.25,12.6638351 6.29648693,11.7012784 5.125,11.7012784 Z M5.125,14.4773608 C4.78026961,14.4773608 4.5,14.194433 4.5,13.846433 C4.5,13.498433 4.78026961,13.2155052 5.125,13.2155052 C5.46973039,13.2155052 5.75,13.498433 5.75,13.846433 C5.75,14.194433 5.46973039,14.4773608 5.125,14.4773608 Z" id="Shape"></path>
                </g>
            </g>
        </g>
    </g>
</svg>