<svg xmlns="http://www.w3.org/2000/svg" xmlns:xlink="http://www.w3.org/1999/xlink" width="11" height="6" viewBox="0 0 11 6"><defs><path id="241na" d="M1899.63 50.62l-.53-.52a.35.35 0 0 0-.5 0l-4.23 4.04-4.23-4.04a.35.35 0 0 0-.5 0l-.53.52a.32.32 0 0 0-.11.23c0 .1.04.17.1.24l5.02 4.79a.35.35 0 0 0 .5 0l5.01-4.8c.08-.06.11-.14.11-.23a.32.32 0 0 0-.1-.23z"/></defs><g><g transform="translate(-1889 -50)"><use fill="#146947" xlink:href="#241na"/><use fill="#fff" fill-opacity="0" stroke="#146947" stroke-miterlimit="50" stroke-width=".5" xlink:href="#241na"/></g></g></svg>