<?xml version="1.0" encoding="UTF-8"?>
<svg width="23px" height="14px" viewBox="0 0 23 14" version="1.1" xmlns="http://www.w3.org/2000/svg" xmlns:xlink="http://www.w3.org/1999/xlink">
    <!-- Generator: Sketch 50.2 (55047) - http://www.bohemiancoding.com/sketch -->
    <title>01</title>
    <desc>Created with Sketch.</desc>
    <defs></defs>
    <g id="Page-1" stroke="none" stroke-width="1" fill="none" fill-rule="evenodd">
        <g id="all_application_calendar_open" transform="translate(-1245.000000, -673.000000)">
            <g id="01" transform="translate(1242.000000, 666.000000)">
                <rect id="Rectangle-7" x="0" y="0" width="28" height="28"></rect>
                <g id="plane-taking-off" transform="translate(3.000000, 7.000000)" fill="#AEAEAE">
                    <g id="Shape">
                        <path d="M22.7039945,0.566537736 L22.6546814,0.521103774 C22.228831,0.212179245 21.6224848,0.0495943396 20.9020942,0.0495943396 C19.757,0.0495943396 18.5710665,0.45209434 18.036205,0.829632075 L13.8210249,3.81262264 L5.6039723,5.62166038 C5.53204155,5.63790566 5.46527147,5.66709434 5.40429917,5.71008491 C5.24476454,5.82466038 5.15276454,6.01960377 5.16327701,6.21983019 C5.17971468,6.50735849 5.39168421,6.73591509 5.66519945,6.76226415 L9.14017452,7.1249434 L5.75299446,9.52151887 C4.74449861,9.04162264 3.78709972,8.57612264 2.90640997,8.13908491 C1.54157341,7.46100943 0.650562327,7.34167925 0.231847645,7.77587736 C-0.204069252,8.2279717 0.0799584488,9.00041509 0.235479224,9.23590566 L3.49829363,13.6205472 C3.60806925,13.7866981 3.73415512,13.8818585 3.88547091,13.9104528 C4.13662327,13.9552264 4.35470914,13.7993774 4.58196953,13.632434 L5.40812188,13.0423868 L9.99773684,10.7324528 L9.32608587,13.2187736 C9.2524349,13.4943491 9.38100554,13.7802925 9.63215789,13.9004151 C9.70351524,13.9345566 9.78385596,13.9523208 9.863241,13.9523208 C9.97652078,13.9523208 10.0849584,13.9174528 10.1794432,13.8520094 C10.2404792,13.8095472 10.28941,13.7564528 10.3301856,13.6921981 L12.9563906,9.55539623 L14.5628227,7.60721698 L21.6864515,2.56635849 C21.7955263,2.48962264 21.9018615,2.41883019 22.0085789,2.3474434 C22.2541884,2.1850566 22.4864183,2.03099057 22.653662,1.85612264 C23.0135706,1.48433019 23.0342133,1.06934906 22.7039945,0.566537736 Z" fill-rule="nonzero"></path>
                    </g>
                </g>
            </g>
        </g>
    </g>
</svg>