<?xml version="1.0" encoding="UTF-8"?>
<svg width="18px" height="22px" viewBox="0 0 18 22" version="1.1" xmlns="http://www.w3.org/2000/svg" xmlns:xlink="http://www.w3.org/1999/xlink">
    <!-- Generator: Sketch 50.2 (55047) - http://www.bohemiancoding.com/sketch -->
    <title>03</title>
    <desc>Created with Sketch.</desc>
    <defs></defs>
    <g id="Page-1" stroke="none" stroke-width="1" fill="none" fill-rule="evenodd">
        <g id="all_application_calendar_open" transform="translate(-1321.000000, -669.000000)">
            <g id="03" transform="translate(1316.000000, 666.000000)">
                <rect id="Rectangle-7" x="0" y="0" width="28" height="28"></rect>
                <g id="underground" transform="translate(5.000000, 3.000000)" fill="#AEAEAE">
                    <g id="Shape">
                        <path d="M17.8550629,20.5924528 L14.5195965,14.7226415 C15.4654751,14.5783019 16.1623991,13.7603774 16.1623991,12.8461887 L16.1623991,4.18581132 C16.1623991,1.87641509 14.220859,0 11.8312711,0 L6.156,0 C3.76641215,0 1.77508894,1.87641509 1.77508894,4.23396226 L1.77508894,12.8462264 C1.77508894,13.8084906 2.47205206,14.5783019 3.41793059,14.7226792 L0.132247289,20.5924528 C-0.116668113,21.0735849 0.032681128,21.6509434 0.530511931,21.8915094 C0.679861171,21.9877358 0.829210412,21.9877358 0.978559653,21.9877358 C1.32704121,21.9877358 1.67552278,21.795283 1.82487202,21.5066038 L2.1235705,21.0254717 L15.8637007,21.0254717 L16.1623601,21.5066038 C16.3615315,21.8433962 16.6601909,21.9877358 17.0087115,21.9877358 C17.1580217,21.9877358 17.3073709,21.9396604 17.4567592,21.8915094 C17.95459,21.6509434 18.1039783,21.0735849 17.8550629,20.5924528 Z M13.1754143,16.2622642 L4.81185683,16.2622642 L5.6581692,14.7707547 L12.329102,14.7707547 L13.1754143,16.2622642 Z M13.0261041,13.0386792 C12.2295748,13.0386792 11.5823557,12.4132075 11.5823557,11.6433585 C11.5823557,10.8735472 12.2295358,10.2480755 13.0261041,10.2480755 C13.8225944,10.2480755 14.4698134,10.8735472 14.4698134,11.6433585 C14.4697744,12.3650943 13.8225944,13.0386792 13.0261041,13.0386792 Z M3.51749675,4.76320755 C3.51749675,3.27169811 4.76207375,2.06886792 6.25556616,2.06886792 L11.6819219,2.06886792 C13.1754143,2.06886792 14.4697744,3.27169811 14.4697744,4.76320755 L14.4697744,7.07264151 C14.4697744,7.60188679 14.0217267,7.98679245 13.4741128,7.98679245 L4.51315835,7.98679245 C3.96554447,7.98679245 3.56727983,7.55377358 3.56727983,7.07264151 L3.51749675,4.76320755 Z M4.96120607,10.2 C5.75773536,10.2 6.4049154,10.8254717 6.4049154,11.5953208 C6.4049154,12.3650943 5.75773536,12.9906038 4.96120607,12.9906038 C4.16467679,12.9906038 3.51749675,12.3651321 3.51749675,11.5953208 C3.51749675,10.8254717 4.16471584,10.2 4.96120607,10.2 Z M2.92013883,19.5820755 L4.01536659,17.7056604 L13.9719826,17.7056604 L15.0672104,19.5820755 L2.92013883,19.5820755 Z" fill-rule="nonzero"></path>
                    </g>
                </g>
            </g>
        </g>
    </g>
</svg>