<svg xmlns="http://www.w3.org/2000/svg" xmlns:xlink="http://www.w3.org/1999/xlink" width="15" height="20" viewBox="0 0 15 20"><defs><path id="gxd7a" d="M1583.65 1190.3a.4.4 0 0 1 .4-.4h.63c.22 0 .4.18.4.4v8.15a.4.4 0 0 1-.4.42h-.64a.4.4 0 0 1-.4-.42zm3.17-.4h.64c.22 0 .4.18.4.4v8.15a.4.4 0 0 1-.4.42h-.64a.4.4 0 0 1-.4-.42v-8.15a.4.4 0 0 1 .4-.4zm2.38.4a.4.4 0 0 1 .4-.4h.64c.22 0 .4.18.4.4v8.15a.4.4 0 0 1-.4.42h-.64a.4.4 0 0 1-.4-.42zm-7.6 10.73a1 1 0 0 0 .98.97h9.12a1 1 0 0 0 .98-.97l.65-14.27h-12.38z"/><path id="gxd7b" d="M1594.14 1183.08h-4.3v-.86c0-.12-.09-.22-.2-.22h-4.51c-.12 0-.21.1-.21.22v.86h-4.3c-.34 0-.62.3-.62.66v2.07h14.76v-2.07a.64.64 0 0 0-.62-.66z"/></defs><g><g transform="translate(-1580 -1182)"><g><use fill="#146947" xlink:href="#gxd7a"/></g><g><use fill="#146947" xlink:href="#gxd7b"/></g></g></g></svg>