<svg xmlns="http://www.w3.org/2000/svg" xmlns:xlink="http://www.w3.org/1999/xlink" width="25" height="16" viewBox="0 0 25 16"><defs><path id="5geva" d="M1110.63 398.48a.63.63 0 0 1-.63-.63c0-.35.28-.64.63-.64.34 0 .62.29.62.64 0 .34-.28.63-.63.63zm0-2.78c-1.18 0-2.13.96-2.13 2.15 0 1.18.95 2.14 2.13 2.14 1.17 0 2.12-.96 2.12-2.14 0-1.19-.95-2.15-2.13-2.15z"/><path id="5gevb" d="M1107.25 390.82v-2.53c0-.27.22-.5.5-.5h2.2a.5.5 0 0 1 .39.18l2.08 2.52a.5.5 0 0 1-.38.83h-4.29a.5.5 0 0 1-.5-.5zm3.17-4.04h-3.67a.5.5 0 0 0-.5.5v9.85c0 .28.22.5.5.5h.53a.5.5 0 0 0 .5-.43 2.76 2.76 0 0 1 2.85-2.45c1.45 0 2.65.94 2.84 2.45a.5.5 0 0 0 .5.43h.53a.5.5 0 0 0 .5-.5v-4.92a.5.5 0 0 0-.12-.33l-4.08-4.92a.5.5 0 0 0-.38-.18z"/><path id="5gevc" d="M1090.5 397.64h1.28a.5.5 0 0 0 .5-.43 2.76 2.76 0 0 1 2.85-2.46c1.45 0 2.65.94 2.84 2.46a.5.5 0 0 0 .5.43h6.28a.5.5 0 0 0 .5-.5V384.5a.5.5 0 0 0-.5-.5h-14.25a.5.5 0 0 0-.5.5v12.62c0 .28.22.5.5.5z"/><path id="5gevd" d="M1095.13 398.48a.63.63 0 0 1-.63-.63c0-.35.28-.64.63-.64.34 0 .62.29.62.64 0 .34-.28.63-.63.63zm0-2.78c-1.18 0-2.13.96-2.13 2.15 0 1.18.95 2.14 2.13 2.14 1.17 0 2.12-.96 2.12-2.14 0-1.19-.95-2.15-2.13-2.15z"/></defs><g><g opacity=".8" transform="translate(-1090 -384)"><g opacity=".8"><use fill="#999" xlink:href="#5geva"/></g><g opacity=".8"><use fill="#999" xlink:href="#5gevb"/></g><g opacity=".8"><use fill="#999" xlink:href="#5gevc"/></g><g opacity=".8"><use fill="#999" xlink:href="#5gevd"/></g></g></g></svg>