<?xml version="1.0" encoding="UTF-8"?>
<svg width="18px" height="18px" viewBox="0 0 18 18" version="1.1" xmlns="http://www.w3.org/2000/svg" xmlns:xlink="http://www.w3.org/1999/xlink">
    <!-- Generator: Sketch 50.2 (55047) - http://www.bohemiancoding.com/sketch -->
    <title>02</title>
    <desc>Created with Sketch.</desc>
    <defs></defs>
    <g id="Page-1" stroke="none" stroke-width="1" fill="none" fill-rule="evenodd">
        <g id="all_application_calendar_open" transform="translate(-1285.000000, -671.000000)">
            <g id="02" transform="translate(1280.000000, 666.000000)">
                <g id="factory-stock-house" transform="translate(5.000000, 5.000000)" fill="#AEAEAE">
                    <g>
                        <polygon id="Shape" fill-rule="nonzero" points="3.25941176 6.76608261 14.7570196 6.76608261 14.7570196 17.9772652 17.9912549 17.9772652 17.9912549 4.18523478 8.75207843 0 0.0251764706 4.18523478 0.0251764706 17.9772652 3.25941176 17.9772652"></polygon>
                        <rect id="Rectangle-path" fill-rule="nonzero" x="6.71196078" y="15.790813" width="2.04011765" height="1.75609565"></rect>
                        <rect id="Rectangle-path" fill-rule="nonzero" x="9.21588235" y="15.790813" width="2.04011765" height="1.75609565"></rect>
                        <rect id="Rectangle-path" fill-rule="nonzero" x="4.20835294" y="15.790813" width="2.04011765" height="1.75609565"></rect>
                        <rect id="Rectangle-path" fill-rule="nonzero" x="6.71196078" y="13.3820217" width="2.04011765" height="1.75609565"></rect>
                        <rect id="Rectangle-path" fill-rule="nonzero" x="4.20835294" y="13.3820217" width="2.04011765" height="1.75609565"></rect>
                        <rect id="Rectangle-path" fill-rule="nonzero" x="9.21588235" y="13.3820217" width="2.04011765" height="1.75609565"></rect>
                        <rect id="Rectangle-path" fill-rule="nonzero" x="6.71196078" y="10.9735826" width="2.04011765" height="1.75609565"></rect>
                        <rect id="Rectangle-path" fill-rule="nonzero" x="4.20835294" y="10.9735826" width="2.04011765" height="1.75609565"></rect>
                        <rect id="Rectangle-path" fill-rule="nonzero" x="11.7194902" y="15.790813" width="2.04011765" height="1.75609565"></rect>
                    </g>
                </g>
                <rect id="Rectangle-7" x="0" y="0" width="28" height="28"></rect>
            </g>
        </g>
    </g>
</svg>