<svg xmlns="http://www.w3.org/2000/svg" xmlns:xlink="http://www.w3.org/1999/xlink" width="35" height="40" viewBox="0 0 35 40"><defs><path id="8w34a" d="M815.2 210.45h-2.62v-11.91c0-.34 0-.66-.24-.89l-10.45-9.58c-.2-.4-.56-.68-1.04-.68-.02 0-.02-.1-.04-.1-.03 0-.03-.13-.05-.13h-6.17v-3.05c0-1.24 1.81-1.72 3.08-1.72h8.91v8.58c0 .66.84.97 1.5.97h9.3v16.05c0 1.43-.86 2.46-2.18 2.46zm-6.39-13.14h-7.02v-5.9zm1.37 18.13c0 1.42-1.16 2.17-2.47 2.17h-17.53c-1.4 0-2.78-.82-2.78-2.17v-23.88c0-1.55 1.85-2 2.78-2h9.21v9.17c0 .66.84.97 1.5.97h9.3v15.74zm-1.2-31.46l6.69 5.57h-6.69zm10.34 5.89l-10.27-9.44c-.22-.2-.5-.43-.8-.43h-10.58c-3.24 0-5.48 1.68-5.48 4.1v3.06h-2c-2.97 0-5.19 1.87-5.19 4.4v23.88c0 2.69 2.44 4.56 5.18 4.56h17.53c2.8 0 4.87-1.96 4.87-4.56v-2.6h2.62c2.64 0 4.58-2.1 4.58-4.85v-16.91c0-.02.14-.04.14-.05 0-.02.08-.04.08-.06 0-.5-.24-.93-.68-1.1z"/></defs><g><g opacity=".5" transform="translate(-785 -180)"><use fill="#26221f" xlink:href="#8w34a"/></g></g></svg>