<?xml version="1.0" encoding="UTF-8"?>
<svg width="526px" height="604px" viewBox="0 0 526 604" version="1.1" xmlns="http://www.w3.org/2000/svg" xmlns:xlink="http://www.w3.org/1999/xlink">
    <!-- Generator: Sketch 49.3 (51167) - http://www.bohemiancoding.com/sketch -->
    <title>copy</title>
    <desc>Created with Sketch.</desc>
    <defs></defs>
    <g id="copy" stroke="none" stroke-width="1" fill="none" fill-rule="evenodd">
        <g id="clipboard" fill="#156947" fill-rule="nonzero">
            <path d="M515.835906,148.998687 L361.509539,6.42764179 C358.193599,3.39862687 353.859449,0 349.354096,0 L190.432268,0 C141.711379,0 108.128476,25.3319403 108.128476,61.9956418 L108.128476,108.179104 L77.8705242,108.179104 C33.3035707,108.179104 0,136.341731 0,174.61009 L0,535.216119 C0,575.711164 36.7366498,604 77.8705242,604 L341.262481,604 C383.405555,604 414.492492,574.358925 414.492492,535.216119 L414.492492,495.820896 L453.824225,495.820896 C493.56144,495.820896 522.620968,464.151463 522.620968,422.601672 L522.620968,167.27194 C522.620968,167.010507 524.801559,166.75809 524.792548,166.505672 C524.801559,166.235224 525.999983,165.973791 525.999983,165.703343 C526.008994,158.130806 522.449765,151.667104 515.835906,148.998687 Z M360.428254,60.0844776 L460.89763,144.238806 L360.428254,144.238806 L360.428254,60.0844776 Z M378.449667,535.216119 C378.449667,556.518388 360.986918,567.940299 341.262481,567.940299 L77.8795349,567.940299 C56.9476641,567.940299 36.0518361,555.490687 36.0518361,535.216119 L36.0518361,174.61009 C36.0518361,151.171284 63.9399722,144.238806 77.8795349,144.238806 L216.265963,144.238806 L216.265963,282.897373 C216.265963,292.849851 228.844909,297.492537 238.792729,297.492537 L378.458677,297.492537 L378.458677,535.216119 L378.449667,535.216119 Z M357.869213,261.432836 L252.299778,261.432836 L252.299778,172.383403 L357.869213,261.432836 Z M453.824225,459.761194 L414.492492,459.761194 L414.492492,279.886388 C414.492492,274.82 414.618642,269.997015 410.888209,266.580358 L253.831598,121.809672 C250.912129,115.796716 245.361534,111.604776 238.225054,111.604776 C237.900669,111.604776 237.873637,109.96406 237.549251,109.98209 C237.206845,109.96406 237.15278,108.17009 236.801363,108.17009 L144.171302,108.17009 L144.171302,61.9866269 C144.171302,43.3888358 171.383635,36.0506866 190.432268,36.0506866 L324.385428,36.0506866 L324.385428,165.694328 C324.385428,175.646806 336.964375,180.289493 346.912194,180.289493 L486.578143,180.289493 L486.578143,422.592657 C486.578143,444.219463 473.683822,459.761194 453.824225,459.761194 Z" id="Shape"></path>
        </g>
    </g>
</svg>