<svg xmlns="http://www.w3.org/2000/svg" xmlns:xlink="http://www.w3.org/1999/xlink" width="25" height="14" viewBox="0 0 25 14"><defs><path id="agtda" d="M1792.71 460a1.38 1.38 0 0 1-1.1 2.2 1.38 1.38 0 0 1-1.12-2.2h-1.56v.1a2.1 2.1 0 1 1-4.18 0v-.1h-.76v.1a2.1 2.1 0 1 1-4.18 0v-.1h-.77v.1a2.1 2.1 0 1 1-4.18 0v-.1h-1.46a1.38 1.38 0 1 1-2.5.82c0-.3.1-.6.27-.82H1770v-.85h1.33v-1.57h1.35l-1.42-2.33 1.45-2.29h1.88l-.16-1.52h-.15v-1.62h.82c.01.02.42 0 1.07 0h.5v1.62h-.23l-.18 1.52h3.4v-.76h7.18v.76h.8v-.76h6.67v1.14h-3.38v2.33h1.86v3.48h2.04v.85z"/></defs><g><g transform="translate(-1770 -449)"><g><use fill="#aeaeae" xlink:href="#agtda"/></g></g></g></svg>