<svg xmlns="http://www.w3.org/2000/svg" xmlns:xlink="http://www.w3.org/1999/xlink" width="53" height="60" viewBox="0 0 53 60"><defs><path id="yj6ha" d="M445 414a3 3 0 0 1 3-3h27.11v10a1 1 0 0 0 1 1H487v41a3 3 0 0 1-3 3h-36a3 3 0 0 1-3-3z"/><path id="yj6hb" d="M475 458.5a11.5 11.5 0 0 1 23 0 11.5 11.5 0 0 1-23 0z"/><path id="yj6hc" d="M445 414a3 3 0 0 1 3-3h27.11v10a1 1 0 0 0 1 1H487v41a3 3 0 0 1-3 3h-36a3 3 0 0 1-3-3z"/><path id="yj6he" d="M474.53 411.05a1.3 1.3 0 0 1 1.85 0l10.1 10.1a1.3 1.3 0 0 1-1.85 1.85l-10.1-10.1a1.3 1.3 0 0 1 0-1.85z"/><path id="yj6hg" d="M486 454a1 1 0 0 1 2 0v9a1 1 0 0 1-2 0z"/><path id="yj6hh" d="M491.5 457.5a1 1 0 0 1 0 2h-9a1 1 0 0 1 0-2z"/><clipPath id="yj6hd"><use fill="#fff" xlink:href="#yj6ha"/></clipPath><clipPath id="yj6hf"><use fill="#fff" xlink:href="#yj6hb"/></clipPath></defs><g><g transform="translate(-445 -410)"><g><use fill="#fff" fill-opacity="0" stroke="#146947" stroke-miterlimit="50" stroke-width="4" clip-path="url(&quot;#yj6hd&quot;)" xlink:href="#yj6hc"/></g><g><use fill="#146947" xlink:href="#yj6he"/></g><g><use fill="#fff" xlink:href="#yj6hb"/><use fill="#fff" fill-opacity="0" stroke="#146947" stroke-miterlimit="50" stroke-width="4" clip-path="url(&quot;#yj6hf&quot;)" xlink:href="#yj6hb"/></g><g><use fill="#146947" xlink:href="#yj6hg"/></g><g><use fill="#146947" xlink:href="#yj6hh"/></g></g></g></svg>