<svg xmlns="http://www.w3.org/2000/svg" xmlns:xlink="http://www.w3.org/1999/xlink" width="14" height="14" viewBox="0 0 14 14"><defs><path id="3w8da" d="M1058.97 670.12a.58.58 0 0 0-.82 0l-7 7.04a2.33 2.33 0 0 1-3.3-3.3l7.21-7.24a1.46 1.46 0 0 1 2.06 2.06l-5.97 5.97a.58.58 0 0 1-.82-.82l2.88-2.89a.58.58 0 0 0-.83-.82l-2.88 2.88a1.75 1.75 0 1 0 2.47 2.47l5.97-5.97a2.62 2.62 0 0 0-3.7-3.7l-7.2 7.24a3.5 3.5 0 0 0 4.93 4.94l7-7.04a.58.58 0 0 0 0-.82z"/></defs><g><g opacity=".6" transform="translate(-1046 -665)"><use fill="#26221f" xlink:href="#3w8da"/></g></g></svg>