<svg xmlns="http://www.w3.org/2000/svg" xmlns:xlink="http://www.w3.org/1999/xlink" width="33.79" height="25.94" viewBox="0 0 33.79 25.94"><defs><path id="s9zta" d="M802 1893.24a3.07 3.07 0 0 0-5.98 0h-1.25v-10.86h3.63v5.07c0 .37.3.67.67.67h4.37v5.12zm-3 2.38a1.72 1.72 0 1 1 0-3.43 1.72 1.72 0 0 1 0 3.43zm.74-12.18l2.93 3.34h-2.93zm-19.5 9.8a3.07 3.07 0 0 0-5.98 0h-.65v-2.97h19.81v2.97zm-3 2.38a1.72 1.72 0 1 1 .01-3.43 1.72 1.72 0 0 1 0 3.43zm-4.9-17.8a5.46 5.46 0 1 1 10.92.02 5.46 5.46 0 0 1-10.91-.01zm12.25-.15h8.83v11.25h-19.81v-5.74a6.8 6.8 0 0 0 10.99-5.51zm20.03 9.3l-5-5.71a.67.67 0 0 0-.5-.23h-4.35v-4.04c0-.37-.3-.67-.67-.67h-9.67a6.81 6.81 0 0 0-13.43 1.5c0 1.47.47 2.83 1.26 3.95v10h-.59a.67.67 0 1 0 0 1.35h.59v.79c0 .37.3.67.67.67h1.33a3.07 3.07 0 0 0 5.97 0h15.79a3.07 3.07 0 0 0 5.97 0h2.12c.38 0 .68-.3.68-.67v-6.5a.67.67 0 0 0-.17-.45z"/><path id="s9ztb" d="M791.8 1886.85h-5.66a.67.67 0 1 0 0 1.35h5.66a.67.67 0 1 0 0-1.35z"/><path id="s9ztc" d="M784.06 1886.85h-.4a.67.67 0 1 0 0 1.35h.4a.67.67 0 1 0 0-1.35z"/><path id="s9ztd" d="M777.38 1875.6c0-.32.26-.58.57-.58h.21c.32 0 .58.26.58.57v4.77c0 .31-.26.57-.57.57h-.21a.58.58 0 0 1-.58-.57z"/><path id="s9zte" d="M780.44 1877.3c.32 0 .57.25.57.57v.21c0 .32-.25.58-.57.58h-4.76a.58.58 0 0 1-.57-.58v-.21c0-.32.25-.57.57-.57z"/></defs><g><g transform="translate(-771 -1871.03)"><g><use fill="#146947" xlink:href="#s9zta"/></g><g><use fill="#146947" xlink:href="#s9ztb"/></g><g><use fill="#146947" xlink:href="#s9ztc"/></g><g><use fill="#146947" xlink:href="#s9ztd"/></g><g><use fill="#146947" xlink:href="#s9zte"/></g></g></g></svg>